<?xml version="1.0" standalone="no"?>
<svg xmlns="http://www.w3.org/2000/svg" xmlns:xlink="http://www.w3.org/1999/xlink" width="543pt" height="273pt" viewBox="0.00 0.00 543.26 272.87">
<g id="graph0" class="graph" transform="translate(4,268.8699951171875) scale(1)" data-name="G">

<polygon fill="white" stroke="none" points="-4,4 -4,-268.87 539.26,-268.87 539.26,4 -4,4" style=""/>
<!-- h1 -->
<g id="node1" class="node" pointer-events="visible" data-name="h1">

<polygon fill="none" stroke="black" points="77.76,-264.67 0.08,-264.67 0.08,-223.47 77.76,-223.47 77.76,-264.67" style=""/>
<text text-anchor="middle" x="38.92" y="-248.27" font-family="Times,serif" font-size="14.00" style="">h1</text>
<text text-anchor="middle" x="38.92" y="-231.47" font-family="Times,serif" font-size="14.00" style="">IP:10.0.0.1</text>
</g>
<!-- s1 -->
<g id="node6" class="node" pointer-events="visible" data-name="s1">

<ellipse fill="antiquewhite" stroke="black" cx="38.92" cy="-132.44" rx="21.47" ry="21.47" style=""/>
<text text-anchor="middle" x="38.92" y="-128.24" font-family="Times,serif" font-size="14.00" style="">S1</text>
</g>
<!-- h1&#45;&#45;s1 -->
<g id="edge1" class="edge" data-name="h1--s1">

<path fill="none" stroke="black" d="M38.92,-223.22C38.92,-203.72 38.92,-174.09 38.92,-154.26" style=""/>
<text text-anchor="middle" x="78.59" y="-192.67" font-family="Times,serif" font-size="14.00" style="">BW:100Mbps</text>
<text text-anchor="middle" x="78.59" y="-175.87" font-family="Times,serif" font-size="14.00" style="">Delay:2ms</text>
</g>
<!-- h2 -->
<g id="node2" class="node" pointer-events="visible" data-name="h2">

<polygon fill="none" stroke="black" points="216.76,-264.67 139.08,-264.67 139.08,-223.47 216.76,-223.47 216.76,-264.67" style=""/>
<text text-anchor="middle" x="177.92" y="-248.27" font-family="Times,serif" font-size="14.00" style="">h2</text>
<text text-anchor="middle" x="177.92" y="-231.47" font-family="Times,serif" font-size="14.00" style="">IP:10.0.0.2</text>
</g>
<!-- s2 -->
<g id="node7" class="node" pointer-events="visible" data-name="s2">

<ellipse fill="antiquewhite" stroke="black" cx="177.92" cy="-132.44" rx="21.47" ry="21.47" style=""/>
<text text-anchor="middle" x="177.92" y="-128.24" font-family="Times,serif" font-size="14.00" style="">S2</text>
</g>
<!-- h2&#45;&#45;s2 -->
<g id="edge2" class="edge" data-name="h2--s2">

<path fill="none" stroke="black" d="M177.92,-223.22C177.92,-203.72 177.92,-174.09 177.92,-154.26" style=""/>
<text text-anchor="middle" x="217.59" y="-192.67" font-family="Times,serif" font-size="14.00" style="">BW:100Mbps</text>
<text text-anchor="middle" x="217.59" y="-175.87" font-family="Times,serif" font-size="14.00" style="">Delay:2ms</text>
</g>
<!-- h3 -->
<g id="node3" class="node" pointer-events="visible" data-name="h3">

<polygon fill="none" stroke="black" points="355.76,-264.67 278.08,-264.67 278.08,-223.47 355.76,-223.47 355.76,-264.67" style=""/>
<text text-anchor="middle" x="316.92" y="-248.27" font-family="Times,serif" font-size="14.00" style="">h3</text>
<text text-anchor="middle" x="316.92" y="-231.47" font-family="Times,serif" font-size="14.00" style="">IP:10.0.0.3</text>
</g>
<!-- s3 -->
<g id="node8" class="node" pointer-events="visible" data-name="s3">

<ellipse fill="antiquewhite" stroke="black" cx="316.92" cy="-132.44" rx="21.47" ry="21.47" style=""/>
<text text-anchor="middle" x="316.92" y="-128.24" font-family="Times,serif" font-size="14.00" style="">S3</text>
</g>
<!-- h3&#45;&#45;s3 -->
<g id="edge3" class="edge" data-name="h3--s3">

<path fill="none" stroke="black" d="M316.92,-223.22C316.92,-203.72 316.92,-174.09 316.92,-154.26" style=""/>
<text text-anchor="middle" x="356.59" y="-192.67" font-family="Times,serif" font-size="14.00" style="">BW:100Mbps</text>
<text text-anchor="middle" x="356.59" y="-175.87" font-family="Times,serif" font-size="14.00" style="">Delay:2ms</text>
</g>
<!-- h4 -->
<g id="node4" class="node" pointer-events="visible" data-name="h4">

<polygon fill="none" stroke="black" points="494.76,-264.67 417.08,-264.67 417.08,-223.47 494.76,-223.47 494.76,-264.67" style=""/>
<text text-anchor="middle" x="455.92" y="-248.27" font-family="Times,serif" font-size="14.00" style="">h4</text>
<text text-anchor="middle" x="455.92" y="-231.47" font-family="Times,serif" font-size="14.00" style="">IP:10.0.0.4</text>
</g>
<!-- s4 -->
<g id="node9" class="node" pointer-events="visible" data-name="s4">

<ellipse fill="antiquewhite" stroke="black" cx="455.92" cy="-132.44" rx="21.47" ry="21.47" style=""/>
<text text-anchor="middle" x="455.92" y="-128.24" font-family="Times,serif" font-size="14.00" style="">S4</text>
</g>
<!-- h4&#45;&#45;s4 -->
<g id="edge4" class="edge" data-name="h4--s4">

<path fill="none" stroke="black" d="M455.92,-223.22C455.92,-203.72 455.92,-174.09 455.92,-154.26" style=""/>
<text text-anchor="middle" x="495.59" y="-192.67" font-family="Times,serif" font-size="14.00" style="">BW:100Mbps</text>
<text text-anchor="middle" x="495.59" y="-175.87" font-family="Times,serif" font-size="14.00" style="">Delay:2ms</text>
</g>
<!-- dns -->
<g id="node5" class="node" pointer-events="visible" data-name="dns">

<polygon fill="aqua" stroke="black" points="240.29,-41.4 115.55,-41.4 115.55,-0.2 240.29,-0.2 240.29,-41.4" style=""/>
<text text-anchor="middle" x="177.92" y="-25" font-family="Times,serif" font-size="14.00" style="">dns (DNS resolver)</text>
<text text-anchor="middle" x="177.92" y="-8.2" font-family="Times,serif" font-size="14.00" style="">IP=10.0.0.5</text>
</g>
<!-- s1&#45;&#45;s2 -->
<g id="edge6" class="edge" data-name="s1--s2">

<path fill="none" stroke="black" d="M60.64,-132.44C86.75,-132.44 130.31,-132.44 156.35,-132.44" style=""/>
<text text-anchor="middle" x="108.42" y="-156.44" font-family="Times,serif" font-size="14.00" style="">BW:100Mbps</text>
<text text-anchor="middle" x="108.42" y="-139.64" font-family="Times,serif" font-size="14.00" style="">Delay:5ms</text>
</g>
<!-- s2&#45;&#45;dns -->
<g id="edge5" class="edge" data-name="s2--dns">

<path fill="none" stroke="black" d="M177.92,-110.56C177.92,-90.8 177.92,-61.35 177.92,-41.86" style=""/>
<text text-anchor="middle" x="217.59" y="-80.6" font-family="Times,serif" font-size="14.00" style="">BW:100Mbps</text>
<text text-anchor="middle" x="217.59" y="-63.8" font-family="Times,serif" font-size="14.00" style="">Delay:1ms</text>
</g>
<!-- s2&#45;&#45;s3 -->
<g id="edge7" class="edge" data-name="s2--s3">

<path fill="none" stroke="black" d="M199.64,-132.44C225.75,-132.44 269.31,-132.44 295.35,-132.44" style=""/>
<text text-anchor="middle" x="247.42" y="-156.44" font-family="Times,serif" font-size="14.00" style="">BW:100Mbps</text>
<text text-anchor="middle" x="247.42" y="-139.64" font-family="Times,serif" font-size="14.00" style="">Delay:8ms</text>
</g>
<!-- s3&#45;&#45;s4 -->
<g id="edge8" class="edge" data-name="s3--s4">

<path fill="none" stroke="black" d="M338.64,-132.44C364.75,-132.44 408.31,-132.44 434.35,-132.44" style=""/>
<text text-anchor="middle" x="386.42" y="-156.44" font-family="Times,serif" font-size="14.00" style="">BW:100Mbps</text>
<text text-anchor="middle" x="386.42" y="-139.64" font-family="Times,serif" font-size="14.00" style="">Delay:10ms</text>
</g>
</g>
</svg>